<?xml version="1.0" standalone="no"?>
<!DOCTYPE svg PUBLIC "-//W3C//DTD SVG 20010904//EN"
 "http://www.w3.org/TR/2001/REC-SVG-20010904/DTD/svg10.dtd">
<svg version="1.0" xmlns="http://www.w3.org/2000/svg"
 width="7005.000000pt" height="9905.000000pt" viewBox="0 0 7005.000000 9905.000000"
 preserveAspectRatio="xMidYMid meet">
<metadata>
Created by potrace 1.13, written by Peter Selinger 2001-2015
</metadata>
<g transform="translate(0.000000,9905.000000) scale(0.100000,-0.100000)"
fill="#000000" stroke="none">
<path d="M0 49525 l0 -49525 35025 0 35025 0 0 49525 0 49525 -35025 0 -35025
0 0 -49525z m46025 29068 c440 -762 800 -1396 800 -1407 0 -12 -360 -646 -800
-1409 l-800 -1386 -833 -1 -832 0 0 -3446 0 -3446 33 40 c17 23 36 41 41 41
10 1 146 -98 146 -106 0 -10 -111 -145 -169 -205 -50 -53 -58 -58 -98 -58
l-43 0 0 38 c0 28 -7 45 -25 62 -14 13 -25 29 -25 35 0 6 11 22 25 35 l25 23
0 428 0 427 -82 30 c-46 16 -107 35 -136 43 -39 10 -51 17 -48 28 3 9 10 39
17 66 7 28 13 51 14 53 3 3 192 -43 219 -54 15 -6 16 241 16 2980 l0 2986
-745 2 -746 3 -785 1360 c-432 748 -794 1376 -805 1396 l-21 35 782 1355 c430
745 793 1373 807 1397 l25 42 1621 0 1622 0 800 -1387z m14265 527 c412 -75
806 -230 1260 -496 85 -50 177 -103 203 -118 27 -15 46 -30 43 -33 -3 -3 30
-31 74 -62 474 -339 950 -811 1328 -1315 123 -165 307 -442 407 -613 l70 -120
165 -6 c191 -7 320 -25 476 -67 565 -151 1029 -532 1283 -1054 49 -101 125
-305 117 -313 -2 -3 -33 11 -69 31 -145 81 -378 164 -562 200 -268 52 -562 48
-838 -11 -61 -13 -76 -20 -72 -32 7 -24 45 -191 45 -199 0 -4 -28 -18 -62 -31
-53 -20 -275 -126 -287 -137 -2 -1 26 -50 61 -107 58 -95 66 -103 82 -92 23
17 88 -1 202 -56 482 -235 818 -756 949 -1473 28 -152 61 -453 51 -463 -9 -9
-217 89 -384 182 -246 136 -408 242 -604 395 -110 86 -330 306 -400 400 -153
207 -238 428 -238 623 0 49 4 62 23 77 l22 19 -90 90 c-49 50 -94 91 -100 91
-18 0 -203 -198 -281 -302 -42 -57 -80 -107 -84 -111 -4 -5 -52 14 -107 42
l-100 50 -51 -107 c-190 -403 -245 -851 -156 -1268 14 -65 28 -132 31 -148 l6
-30 -41 25 c-185 109 -449 351 -571 524 -177 252 -288 505 -344 785 -58 286
-45 658 30 927 l18 63 -195 197 c-207 210 -314 330 -476 533 -664 835 -1092
1796 -1189 2670 -26 238 -19 604 17 809 l11 64 106 -6 c58 -4 158 -16 221 -27z
m-5637 -3950 c440 -762 801 -1394 801 -1405 1 -11 -361 -647 -803 -1413 l-803
-1392 -784 0 -784 0 0 -6206 0 -6205 26 -35 26 -34 -26 -21 -26 -20 0 -695 0
-694 -44 0 c-31 0 -46 5 -50 16 -3 9 -6 304 -6 655 l0 640 -61 -46 c-33 -26
-61 -46 -63 -44 -1 2 -23 31 -49 65 -26 33 -47 63 -47 66 0 3 50 43 110 88
l110 82 0 6194 0 6194 -783 0 -784 0 -801 1388 c-440 763 -804 1395 -807 1403
-5 12 951 1683 1582 2767 l25 42 1620 -2 1620 -3 801 -1385z m-13653 -307
c443 -768 805 -1402 804 -1408 -1 -6 -363 -638 -805 -1403 l-803 -1392 -788 0
-788 0 0 -710 0 -710 -45 0 -45 0 0 710 0 710 -787 0 -788 1 -805 1395 c-443
768 -804 1401 -802 1408 4 11 1571 2729 1600 2774 l14 22 1617 0 1616 -1 805
-1396z m8531 -3325 c442 -766 804 -1402 803 -1413 0 -11 -361 -643 -801 -1405
l-801 -1385 -786 -3 -786 -2 0 -1420 0 -1420 -22 0 c-12 0 -35 12 -50 27 l-28
27 0 1393 0 1393 -786 2 -786 3 -801 1385 c-440 762 -801 1394 -801 1405 -1
11 361 647 803 1413 l804 1392 1617 0 1617 0 804 -1392z m16096 575 c157 -212
256 -354 380 -548 1253 -1951 1935 -4243 2023 -6805 60 -1740 -150 -3190 -704
-4854 -144 -432 -396 -1077 -545 -1394 -189 -402 -330 -682 -343 -682 -8 0
-22 6 -31 13 -16 11 -13 28 38 222 31 116 83 305 116 420 248 862 569 2267
684 2990 20 121 49 297 65 390 37 215 133 927 160 1190 12 110 25 232 31 270
21 153 70 838 80 1135 18 517 -7 1379 -51 1750 -5 47 -19 173 -30 280 -30 277
-92 689 -156 1020 -323 1676 -957 3264 -1816 4553 -54 81 -97 147 -94 147 2 0
22 -7 46 -15 l42 -15 -7 40 c-4 22 -5 40 -2 40 3 0 54 -66 114 -147z m-232
-163 c32 -89 56 -162 54 -165 -2 -2 -16 -6 -30 -10 -22 -5 -27 -3 -31 17 -3
13 -25 85 -49 161 -37 117 -41 140 -29 147 8 6 18 10 21 10 4 0 33 -72 64
-160z m-50443 -260 c228 -39 412 -102 673 -230 965 -474 1987 -1565 2670
-2850 379 -714 622 -1442 701 -2100 24 -198 24 -571 1 -730 -56 -381 -172
-637 -379 -836 -123 -118 -293 -208 -475 -251 -108 -25 -408 -25 -538 0 -386
75 -795 267 -1219 569 -254 183 -451 352 -722 622 -363 364 -652 716 -950
1161 -605 905 -993 1846 -1125 2730 -26 178 -37 609 -20 766 46 402 171 692
390 901 133 127 287 208 472 247 132 27 365 28 521 1z m50657 -371 c29 -89 51
-162 49 -164 -13 -10 -73 -24 -78 -18 -5 7 -36 113 -88 305 -4 17 23 36 54 37
6 1 35 -71 63 -160z m189 -632 c23 -84 42 -158 42 -165 0 -10 -58 -32 -86 -32
-6 0 -28 66 -48 148 -20 81 -39 154 -42 164 -3 11 4 19 23 26 67 24 66 25 111
-141z m-32205 -394 c91 -43 178 -127 221 -214 32 -64 64 -198 52 -217 -3 -5
2595 -922 5772 -2039 l5777 -2031 14 32 c8 17 22 46 30 65 26 58 116 140 200
180 70 33 85 36 181 39 122 5 197 -15 287 -75 223 -148 271 -470 101 -685 -23
-29 -92 -82 -175 -133 -2 -1 1486 -2778 3305 -6171 2198 -4098 3313 -6168
3323 -6167 8 1 60 18 115 37 431 149 926 116 1336 -88 488 -245 832 -696 938
-1232 31 -155 38 -412 16 -604 -79 -684 -386 -1531 -759 -2090 -236 -355 -499
-590 -748 -669 -312 -99 -609 6 -921 324 l-104 105 -3174 -7196 c-1746 -3958
-3176 -7200 -3178 -7204 -2 -4 26 -26 61 -48 254 -161 292 -509 78 -722 -186
-187 -496 -183 -672 8 -59 64 -68 78 -100 170 -17 49 -26 62 -38 57 -9 -4
-1013 -364 -2231 -802 -1218 -437 -2217 -797 -2219 -799 -3 -2 6 -15 19 -29
l23 -24 -73 -80 c-40 -45 -75 -81 -77 -81 -3 0 -36 28 -74 62 l-70 62 -47 -16
c-40 -13 -6868 -2465 -6913 -2483 -14 -5 -15 -14 -7 -53 11 -59 2 -158 -22
-227 -84 -245 -362 -375 -608 -283 -115 42 -203 123 -260 237 -36 74 -37 77
-37 193 l0 118 -30 0 c-85 0 -560 22 -775 35 -1220 76 -2461 266 -3602 553
l-198 50 -2 -702 -3 -701 -42 -3 -43 -3 0 715 0 715 -52 15 c-548 152 -857
246 -1288 391 -1116 378 -2226 869 -3267 1446 -128 71 -235 129 -238 129 -3 0
-5 -1604 -5 -3565 l0 -3565 -50 0 -50 0 0 3590 c0 2703 3 3590 12 3590 6 0
-108 71 -253 158 -624 375 -1167 739 -1739 1168 -507 380 -897 701 -1471 1212
l-49 44 0 -1356 0 -1356 -45 0 -45 0 0 1398 0 1398 -205 193 c-530 501 -1112
1122 -1616 1727 -1310 1571 -2402 3389 -3170 5273 l-34 84 -3 -6851 -2 -6852
-45 0 -45 0 0 6973 0 6972 -31 80 c-463 1191 -855 2644 -1064 3940 -169 1043
-248 1969 -262 3050 -27 2188 299 4359 967 6430 112 347 258 764 275 785 15
19 146 363 149 393 6 44 238 597 422 1003 134 296 433 896 592 1190 213 393
522 924 567 974 29 32 195 298 195 312 0 15 337 521 515 773 388 550 854 1142
1289 1639 268 307 690 761 706 761 5 0 91 88 193 195 366 389 1004 969 1577
1436 3067 2495 6791 4032 10705 4418 479 47 1241 96 1518 96 l37 0 0 43 c0 50
29 142 62 196 56 90 141 159 243 198 52 20 75 23 175 20 106 -2 120 -5 183
-34z m32372 -250 c21 -87 38 -162 39 -167 1 -10 -103 -40 -112 -32 -5 6 -72
303 -72 322 0 9 56 29 97 33 7 1 26 -61 48 -156z m120 -515 c18 -77 65 -311
63 -313 -6 -4 -130 -26 -133 -23 -1 2 -14 71 -29 153 -15 83 -29 157 -32 166
-4 13 6 19 43 27 74 15 82 14 88 -10z m159 -802 c21 -124 24 -161 15 -167 -14
-8 -128 -23 -134 -17 -8 8 -55 321 -49 327 8 9 128 28 135 22 3 -3 18 -78 33
-165z m-23994 -210 l0 -44 -132 5 c-195 6 -198 7 -198 48 l0 35 165 0 165 0 0
-44z m470 29 c58 -3 125 -8 149 -12 l44 -6 -6 -54 c-3 -30 -8 -57 -11 -60 -5
-5 -254 22 -303 32 -20 5 -23 12 -23 54 0 52 6 63 29 57 9 -2 63 -7 121 -11z
m-1120 -25 l0 -30 -170 0 c-163 0 -170 1 -170 20 0 11 3 21 8 21 17 3 222 16
275 17 l57 2 0 -30z m24725 -302 c10 -50 45 -311 41 -315 -6 -6 -146 -26 -150
-22 -5 5 -47 331 -44 335 3 2 107 20 135 23 7 0 15 -9 18 -21z m-22419 -113
c34 -67 38 -86 42 -165 2 -49 1 -101 -2 -116 -7 -26 -9 -26 -59 -20 -29 4 -65
9 -82 12 l-30 5 0 92 c0 79 -3 97 -24 130 -23 37 -23 39 -5 52 11 7 39 29 64
48 25 20 48 36 51 36 4 1 24 -33 45 -74z m22504 -532 c1 -5 9 -80 19 -168 10
-88 15 -163 12 -166 -3 -4 -40 -9 -81 -13 l-76 -6 -16 167 c-9 93 -15 169 -13
171 2 2 95 16 143 21 6 0 12 -2 12 -6z m-23162 -513 c28 -37 52 -71 52 -74 0
-3 -56 -50 -125 -106 l-124 -100 -61 76 c-44 55 -58 80 -50 88 27 27 236 185
245 185 6 0 34 -31 63 -69z m-33404 20 c368 -17 671 -32 673 -33 2 -2 -89
-104 -202 -225 -113 -122 -205 -222 -203 -222 2 0 370 -18 818 -40 448 -22
834 -40 858 -40 23 0 42 -4 42 -10 0 -5 -128 -148 -285 -317 l-285 -308 48 -7
c26 -4 468 -18 982 -33 514 -14 948 -29 964 -33 30 -7 24 -14 -386 -457 l-416
-450 46 -7 c26 -4 722 -38 1547 -75 825 -36 1502 -68 1503 -69 2 -1 -143 -161
-322 -355 -179 -194 -324 -354 -322 -356 2 -3 495 -21 1095 -42 600 -21 1094
-40 1097 -43 4 -4 -1159 -1268 -2148 -2334 -91 -98 -608 -658 -1148 -1244
-1112 -1205 -1028 -1115 -1034 -1109 -2 2 -60 490 -127 1084 -67 594 -125
1084 -129 1088 -4 5 -150 -146 -325 -335 -174 -189 -320 -344 -325 -346 -4 -2
-11 10 -14 25 -3 15 -89 703 -192 1528 -103 825 -190 1503 -193 1506 -3 4
-192 -196 -420 -442 -227 -247 -416 -449 -420 -449 -3 0 -55 449 -115 998 -60
548 -112 1000 -115 1004 -3 3 -134 -133 -291 -303 -157 -170 -288 -309 -291
-309 -9 0 -5 -28 -119 870 -56 437 -104 803 -108 813 -6 14 -46 -24 -206 -198
-109 -118 -202 -215 -205 -215 -6 0 -173 1451 -171 1492 1 35 28 35 844 -2z
m56639 -247 c4 -43 9 -119 13 -170 l7 -91 -76 -7 c-41 -4 -80 -5 -85 -1 -5 3
-12 65 -16 138 -4 73 -10 147 -13 165 -5 30 -3 32 29 36 18 2 56 5 84 5 l51 2
6 -77z m41 -635 c3 -29 7 -108 10 -175 l5 -123 -89 0 -90 0 0 109 c0 59 -3
136 -6 169 l-7 61 74 4 c41 1 79 4 86 5 7 1 14 -18 17 -50z m26 -788 l0 -170
-90 0 -90 0 0 170 0 170 90 0 90 0 0 -170z m-79 -500 l69 0 0 -109 c0 -59 -3
-136 -6 -170 l-7 -61 -85 0 -85 0 7 46 c3 26 6 105 6 176 0 115 2 129 16 124
9 -3 47 -6 85 -6z m41 -670 c6 -7 -16 -327 -23 -334 -3 -3 -41 -3 -83 1 l-78
6 6 91 c4 50 9 126 12 170 l6 78 78 -4 c43 -1 80 -5 82 -8z m-53 -666 c5 -5
-16 -243 -26 -303 l-6 -34 -75 7 c-41 3 -76 7 -77 9 -1 1 5 78 13 171 l16 168
75 -6 c42 -4 78 -9 80 -12z m-76 -663 c6 -6 -22 -245 -38 -317 -4 -19 -8 -20
-77 -11 -40 5 -74 10 -75 11 -1 1 8 78 20 170 l22 168 70 -7 c38 -3 73 -10 78
-14z m-159 -646 c31 -4 58 -10 60 -14 4 -6 -53 -323 -59 -329 -5 -6 -111 9
-124 18 -18 10 36 343 54 336 7 -2 37 -7 69 -11z m-114 -656 c40 -9 50 -14 46
-27 -3 -10 -17 -69 -31 -132 -14 -63 -30 -131 -36 -152 l-9 -36 -56 13 c-30 7
-57 14 -59 16 -3 4 50 276 61 312 6 20 16 21 84 6z m-113 -662 c5 -6 -76 -309
-87 -320 -7 -8 -100 11 -100 20 0 6 58 248 70 295 l10 36 51 -13 c28 -8 53
-16 56 -18z m-13957 -291 l0 -34 -152 5 c-191 5 -198 7 -198 38 l0 25 175 0
175 0 0 -34z m490 -1 c177 -22 170 -20 170 -58 0 -17 -4 -37 -8 -43 -11 -17
-344 36 -337 54 3 8 5 25 5 38 0 29 1 29 170 9z m-41563 -10 c671 -127 1138
-834 1223 -1850 61 -733 -116 -1606 -465 -2290 -432 -847 -1077 -1394 -1705
-1444 -540 -43 -993 249 -1275 824 -61 125 -145 339 -145 370 0 20 -11 19 -78
-9 -454 -190 -893 -52 -1177 369 -102 153 -206 407 -250 612 l-18 82 -51 -29
c-94 -53 -230 -92 -341 -97 -406 -20 -708 286 -825 832 -27 127 -39 477 -21
636 86 752 515 1422 1024 1595 244 83 499 34 685 -132 55 -50 134 -143 168
-200 9 -16 26 -2 140 115 165 170 300 273 469 356 188 93 260 110 465 110 145
0 174 -3 240 -23 83 -26 192 -79 259 -125 61 -42 171 -147 221 -212 l42 -55
85 80 c263 249 565 416 869 480 114 24 347 27 461 5z m42122 -115 c102 -39
251 -124 251 -143 0 -5 -14 -27 -31 -48 l-31 -39 -48 35 c-27 20 -91 56 -144
81 l-95 45 17 44 c9 25 19 45 22 45 3 0 29 -9 59 -20z m12693 -212 c21 -6 37
-16 35 -22 -2 -6 -25 -78 -52 -161 -26 -82 -48 -151 -50 -153 -2 -2 -22 2 -44
9 -30 9 -40 17 -37 28 3 9 24 82 47 164 23 81 46 147 52 147 5 0 27 -5 49 -12z
m-12255 -340 c-3 -65 -13 -127 -26 -168 -31 -96 -30 -96 -87 -75 -27 10 -53
21 -57 25 -4 4 6 47 23 97 20 61 30 111 30 151 l0 61 38 4 c20 2 48 4 61 5
l24 2 -6 -102z m12060 -294 c17 -5 22 -11 18 -23 -4 -9 -31 -82 -62 -163 l-55
-146 -29 10 c-17 6 -28 15 -26 22 2 6 26 80 53 163 35 110 53 151 62 148 8 -3
25 -8 39 -11z m-12333 -228 l39 -34 -19 -24 c-67 -85 -198 -238 -203 -238 -4
0 -30 21 -58 46 l-53 45 112 129 c123 142 112 137 182 76z m-461 -481 l47 -54
-127 -115 -128 -115 -23 22 c-13 12 -37 39 -53 59 l-30 37 127 110 c69 61 129
111 133 111 3 0 27 -25 54 -55z m-1047 -822 c58 -83 58 -82 37 -90 -10 -3 -71
-44 -135 -90 -64 -46 -120 -83 -125 -83 -12 0 -95 120 -91 131 3 9 259 189
269 189 3 0 23 -26 45 -57z m-552 -383 c25 -38 46 -72 46 -75 0 -6 -271 -188
-274 -183 -38 46 -94 144 -86 152 7 7 251 168 266 175 1 1 22 -30 48 -69z
m-553 -371 l47 -75 -130 -82 c-71 -46 -135 -85 -142 -88 -8 -3 -30 22 -60 69
-25 41 -46 79 -46 83 1 11 262 173 274 170 6 -1 31 -36 57 -77z m-46665 -4362
c4 -3 -85 -339 -166 -627 -101 -359 -282 -1071 -360 -1415 -38 -165 -82 -356
-98 -425 -17 -69 -42 -188 -56 -265 -15 -77 -53 -273 -86 -435 -32 -162 -64
-331 -70 -375 -6 -44 -31 -199 -55 -345 -140 -843 -260 -1954 -286 -2660 -15
-388 -5 -1049 21 -1430 63 -933 226 -1888 465 -2734 378 -1331 878 -2447 1560
-3476 127 -192 379 -540 390 -540 5 0 -3 21 -34 94 -20 46 -21 91 -2 70 5 -5
28 -61 51 -124 42 -115 64 -155 82 -144 15 10 -13 -40 -30 -52 -18 -13 -88 60
-278 288 -728 874 -1414 2104 -1862 3343 -438 1210 -696 2474 -794 3895 -20
291 -22 399 -22 1040 l0 715 33 380 c74 872 209 1597 482 2580 94 336 319 990
479 1390 160 400 193 476 428 963 l146 304 30 -6 c16 -4 31 -7 32 -9z m953
-1526 c11 -7 4 -39 -38 -170 -28 -88 -53 -161 -55 -161 -12 0 -66 23 -66 28 0
4 25 76 57 160 57 153 66 166 102 143z m-213 -627 c13 -3 24 -11 24 -17 0 -21
-82 -302 -91 -311 -10 -12 -89 11 -89 25 0 8 48 161 96 308 2 7 11 10 20 7 9
-3 27 -9 40 -12z m-175 -641 c21 -4 28 -10 25 -22 -3 -9 -22 -83 -42 -166 -20
-82 -37 -151 -38 -152 -4 -7 -99 24 -103 33 -2 7 15 83 38 169 41 153 43 156
67 150 13 -3 37 -9 53 -12z m-168 -644 c24 -6 37 -16 37 -27 0 -9 -14 -85 -31
-168 l-32 -151 -59 12 c-32 7 -61 15 -64 17 -2 3 12 78 32 166 41 179 37 174
117 151z m-143 -649 c30 -6 55 -12 57 -14 3 -3 -48 -327 -52 -334 -3 -3 -137
19 -143 24 -3 2 30 187 54 307 6 30 10 31 84 17z m-49 -668 c6 -6 -23 -260
-36 -317 -4 -20 -8 -20 -81 -11 l-76 10 5 32 c3 19 14 95 24 170 l18 136 70
-7 c38 -3 73 -10 76 -13z m-75 -656 c1 0 -6 -77 -14 -170 l-16 -169 -74 6
c-41 3 -76 8 -80 11 -5 6 14 239 25 304 l6 33 76 -6 c42 -4 77 -8 77 -9z m-58
-661 c4 -4 -16 -337 -20 -339 -2 -1 -38 0 -82 2 l-79 4 7 141 c4 78 9 156 12
172 l5 30 77 -3 c42 -2 79 -6 80 -7z m-33 -665 c4 -6 3 -84 -1 -175 l-7 -165
-37 0 c-20 0 -58 3 -84 6 l-46 7 0 56 c0 31 3 107 7 169 l6 112 78 0 c43 0 81
-5 84 -10z m54158 -1210 c2704 -365 4919 -661 4921 -659 4 4 96 685 96 709 0
9 3 10 9 5 5 -6 190 -496 411 -1090 361 -970 400 -1082 388 -1101 -44 -69
-1342 -1863 -1346 -1859 -2 2 17 164 44 359 26 196 45 358 43 360 -2 2 -2303
313 -5114 692 -2810 378 -5112 689 -5114 691 -3 2 25 94 62 206 229 694 418
1401 571 2129 25 119 46 220 46 224 0 4 15 4 33 1 17 -2 2245 -303 4950 -667z
m-54163 380 l0 -170 -85 0 -85 0 0 170 0 170 85 0 85 0 0 -170z m13 -602 c4
-62 7 -138 7 -169 l0 -56 -52 -7 c-29 -3 -67 -6 -84 -6 l-31 0 -6 113 c-4 61
-7 138 -7 169 0 65 0 65 101 67 l66 1 6 -112z m30 -615 c19 -203 20 -265 6
-274 -8 -5 -44 -9 -81 -9 l-66 0 -6 38 c-3 20 -8 78 -11 127 -3 50 -8 109 -11
132 l-6 42 58 4 c33 2 71 4 85 5 26 2 27 0 32 -65z m50 -625 c15 -86 29 -300
21 -307 -5 -5 -40 -11 -79 -13 l-69 -3 -19 164 c-10 90 -16 166 -13 169 3 3
34 8 68 12 35 4 68 8 74 9 7 0 14 -14 17 -31z m93 -798 c12 -91 21 -166 19
-168 -3 -4 -116 -22 -135 -22 -13 0 -20 33 -39 166 -13 91 -21 167 -18 170 5
6 117 22 137 20 11 -1 19 -40 36 -166z m53004 -1985 c2604 -1071 4741 -1950
4749 -1953 12 -4 395 -578 1092 -1633 106 -159 190 -291 188 -293 -11 -11
-2237 -467 -2259 -463 -27 4 -9610 3944 -9622 3955 -4 4 14 44 38 89 41 74 47
81 67 74 12 -5 1379 -567 3037 -1249 l3016 -1240 277 51 c152 29 277 54 277
57 0 4 -1459 606 -3242 1339 -1784 733 -3244 1335 -3246 1336 -2 2 15 39 37
83 l41 81 202 -83 c112 -46 1607 -660 3322 -1366 l3120 -1283 280 52 c155 29
282 54 283 55 2 1 -1589 657 -3535 1457 -1945 801 -3536 1460 -3535 1465 3 12
168 388 190 435 l18 36 3520 -1449 c4111 -1691 3548 -1461 3538 -1445 -39 66
-321 461 -333 467 -13 7 -6513 2682 -6587 2711 l-22 8 34 83 c19 47 39 82 46
80 6 -2 1461 -599 3232 -1327 1771 -729 3222 -1324 3223 -1322 1 1 -71 108
-160 237 l-163 234 -3009 1237 c-1655 681 -3010 1242 -3012 1248 -3 9 60 190
74 212 2 4 23 -1 47 -11 23 -10 2173 -894 4777 -1965z m-52911 1353 c13 -79
25 -155 28 -169 5 -25 3 -26 -67 -38 -40 -6 -74 -10 -75 -9 -6 10 -57 329 -53
333 7 7 85 22 119 24 26 1 26 0 48 -141z m115 -665 c16 -87 31 -163 33 -169 4
-11 -114 -40 -124 -30 -9 9 -74 319 -67 325 5 5 91 27 119 30 6 0 23 -70 39
-156z m100 -510 c9 -31 66 -297 66 -309 0 -12 -97 -41 -105 -32 -3 2 -22 77
-43 166 l-39 162 41 11 c23 5 46 12 51 14 19 7 24 5 29 -12z m44838 -506 l47
-39 -46 -57 c-25 -31 -51 -55 -58 -55 -7 1 -67 45 -134 98 l-122 97 37 47 c73
91 57 90 148 15 44 -37 102 -85 128 -106z m-44692 -131 c0 -3 18 -75 41 -162
22 -86 37 -160 32 -165 -4 -4 -26 -11 -48 -14 l-40 -7 -44 161 c-24 89 -42
163 -40 165 11 11 99 30 99 22z m45113 -243 c62 -58 113 -110 115 -114 2 -5
-18 -31 -43 -58 l-47 -50 -124 111 -123 111 47 53 c26 30 51 54 55 54 4 0 58
-48 120 -107z m-42237 -2384 c583 -1344 1056 -2445 1050 -2447 -18 -4 -5129
1433 -5132 1443 -4 12 1523 1157 1528 1147 2 -5 802 -579 1778 -1277 976 -697
1782 -1273 1790 -1279 8 -6 -62 70 -155 169 -1382 1462 -2857 3025 -2858 3031
-4 13 918 1663 928 1660 6 -1 487 -1102 1071 -2447z m47774 -1053 c2267 -1880
4118 -3422 4113 -3426 -15 -15 -2403 -1062 -2412 -1058 -5 1 -1521 1256 -3367
2788 -1847 1532 -3440 2853 -3540 2936 l-182 151 159 234 c88 129 228 339 310
467 l150 233 -47 75 c-52 83 -52 81 18 123 l36 22 29 -51 c15 -27 30 -50 33
-50 12 1 438 734 532 916 18 35 36 63 40 61 3 -1 1861 -1540 4128 -3421z
m-5071 2950 c56 -66 101 -122 101 -126 0 -10 -78 -80 -89 -80 -5 0 -57 54
-116 121 l-108 120 49 44 c27 24 52 43 55 42 4 -1 52 -56 108 -121z m-45368
-78 c23 -87 41 -160 38 -162 -2 -2 -18 -7 -35 -10 l-30 -7 -48 152 c-26 84
-50 158 -53 165 -5 12 67 36 79 25 3 -3 25 -77 49 -163z m187 -630 c38 -121
48 -164 39 -170 -24 -15 -33 -7 -49 40 -9 26 -34 98 -57 160 l-41 113 23 9
c12 5 25 9 28 9 3 1 29 -72 57 -161z m45232 -1467 c16 -32 13 -36 -52 -77 -73
-45 -218 -124 -228 -124 -4 0 -12 11 -18 24 -10 22 -6 26 61 64 40 23 101 61
137 86 74 51 85 54 100 27z m-8868 -5723 c55 -66 161 -209 156 -212 -44 -32
-167 -116 -171 -116 -2 0 -29 33 -59 73 -30 39 -74 94 -97 121 -23 26 -41 52
-39 57 5 13 142 128 154 128 6 1 32 -23 56 -51z m345 -573 c20 -59 43 -199 43
-266 l0 -59 -37 0 c-21 0 -68 3 -105 7 l-68 6 0 52 c0 44 -15 118 -45 221 -6
20 2 25 82 52 48 17 94 30 102 29 8 -1 20 -20 28 -42z m-178 -616 l70 -61 -25
-34 c-45 -58 -245 -211 -263 -200 -11 7 -91 142 -91 154 0 5 24 25 54 46 30
21 81 64 113 96 32 33 61 60 65 60 4 0 38 -28 77 -61z m-20239 -1269 l0 -1190
-1595 0 -1595 0 0 1190 0 1190 1595 0 1595 0 0 -1190z m19683 913 c15 -47 26
-87 25 -88 -18 -11 -324 -92 -329 -87 -8 9 -51 153 -47 156 4 3 311 104 319
105 3 1 18 -38 32 -86z m-650 -125 c3 -18 9 -53 12 -78 l7 -45 -144 -19 c-79
-10 -155 -20 -169 -23 -26 -5 -27 -3 -38 62 -7 37 -9 70 -6 74 6 5 279 58 316
60 11 1 19 -10 22 -31z m-651 -132 l3 -65 -95 -5 c-52 -4 -129 -9 -172 -12
l-76 -5 -4 58 c-2 32 -4 59 -3 60 1 3 267 30 307 32 l36 1 4 -64z m-662 -46
l0 -50 -169 0 c-184 0 -181 -1 -181 60 l0 29 98 4 c53 1 132 4 175 5 l77 2 0
-50z m-670 -10 l0 -30 -147 0 c-175 0 -193 4 -193 36 l0 24 170 0 170 0 0 -30z
m-23937 -2467 c368 -190 671 -594 828 -1103 19 -60 38 -109 43 -107 20 7 77
101 94 156 32 106 22 309 -24 436 -11 31 149 -129 235 -236 222 -274 397 -624
455 -911 96 -471 -36 -891 -395 -1249 -270 -269 -771 -562 -1002 -585 -123
-12 -339 25 -510 86 -129 47 -432 232 -607 371 -358 282 -494 592 -436 989 24
160 69 289 195 550 158 327 205 451 218 571 3 33 9 59 13 59 10 0 64 -122 84
-190 21 -70 46 -230 46 -297 0 -28 4 -54 8 -57 5 -3 59 61 120 143 274 365
435 675 513 991 19 80 23 122 24 262 0 93 2 168 3 168 2 0 45 -21 95 -47z
m13147 -693 l0 -470 670 0 670 0 0 473 0 472 274 -275 c239 -241 275 -281 290
-324 14 -44 16 -139 16 -901 l0 -852 -23 -43 c-16 -30 -37 -51 -67 -67 l-43
-23 -1107 0 -1107 0 -43 23 c-30 16 -51 37 -67 67 l-23 43 0 1107 0 1107 23
43 c16 30 37 51 67 67 41 22 53 23 257 23 l213 0 0 -470z m1138 93 l-3 -378
-177 -3 -178 -2 0 380 0 380 180 0 180 0 -2 -377z m23022 -1547 c80 -8 153
-16 163 -16 9 0 17 -7 17 -15 0 -13 -41 -15 -312 -14 -360 1 -578 -10 -883
-46 -1680 -194 -2956 -974 -3748 -2290 -229 -379 -425 -829 -552 -1260 -102
-348 -150 -585 -201 -982 -3 -24 -10 -43 -16 -43 -8 0 -9 55 -5 183 18 584
196 1271 495 1907 142 305 394 697 611 955 576 684 1298 1155 2174 1420 312
94 758 176 1142 210 208 19 916 13 1115 -9z m-440 -926 c220 -12 520 -49 520
-65 0 -8 -103 -11 -367 -11 -407 0 -569 -12 -891 -65 -1124 -185 -2012 -749
-2629 -1669 -355 -531 -647 -1285 -733 -1895 -16 -117 -20 -135 -32 -135 -17
0 -3 282 22 445 69 455 193 868 380 1261 469 988 1285 1692 2299 1983 455 130
916 179 1431 151z m-28467 -922 c260 -326 476 -598 480 -604 9 -15 -98 -85
-179 -118 -178 -73 -398 -74 -573 -3 l-61 25 -10 -37 c-15 -53 -12 -219 4
-298 38 -177 144 -395 282 -579 267 -355 588 -576 854 -586 60 -3 65 -1 62 17
-1 11 -5 65 -8 120 -10 160 25 305 107 441 41 68 157 196 174 192 7 -2 227
-271 488 -598 l476 -595 -27 -23 c-44 -37 -201 -110 -277 -128 -100 -23 -268
-21 -368 5 -42 11 -117 41 -165 65 l-87 46 -64 -20 c-109 -33 -203 -43 -334
-37 -338 16 -676 186 -987 497 -416 415 -660 914 -660 1348 0 108 22 245 53
337 25 71 74 174 100 209 13 18 12 26 -3 72 -74 215 -38 479 90 671 28 40 148
173 157 173 2 0 216 -267 476 -592z m33907 -434 c256 -310 466 -568 467 -572
1 -5 -2494 -2072 -2656 -2199 l-28 -22 -468 566 c-257 312 -468 572 -469 579
-1 14 2660 2214 2677 2213 7 0 221 -254 477 -565z m-5460 357 c194 -30 421
-82 427 -98 3 -8 4 -15 2 -17 -2 -2 -76 5 -164 16 -211 26 -611 28 -802 4
-612 -75 -1095 -292 -1530 -686 -502 -455 -903 -1220 -1058 -2017 -20 -104
-32 -143 -42 -143 -12 0 -13 17 -8 98 45 703 303 1388 718 1905 418 521 1009
857 1652 941 66 9 134 18 150 20 17 2 140 3 275 1 181 -3 280 -9 380 -24z m30
-962 c138 -13 310 -50 310 -66 0 -10 -44 -13 -209 -13 -418 0 -740 -56 -1047
-180 -606 -247 -1013 -756 -1160 -1450 -13 -63 -29 -172 -36 -242 -8 -83 -16
-128 -24 -128 -27 0 -41 246 -25 415 42 432 213 820 485 1103 245 254 497 405
836 498 277 76 543 96 870 63z m1871 -610 c51 -16 106 -62 126 -107 28 -63 22
-180 -16 -291 -100 -296 -374 -666 -812 -1097 -848 -833 -1938 -1450 -2347
-1329 -60 18 -119 66 -138 112 -25 59 -18 184 16 286 266 794 1869 2165 2813
2407 123 32 286 40 358 19z m-2390 -3680 c255 -309 467 -568 471 -574 5 -9
-430 -374 -1332 -1119 -736 -608 -1343 -1106 -1349 -1106 -14 0 -936 1120
-936 1137 0 13 2659 2221 2676 2223 3 0 215 -253 470 -561z"/>
<path d="M61546 77514 c-192 -46 -360 -211 -411 -404 -19 -72 -19 -211 1 -285
42 -163 176 -307 339 -367 74 -26 226 -35 309 -18 81 17 203 81 263 138 185
177 230 431 118 659 -107 217 -373 337 -619 277z"/>
<path d="M33833 69706 l-22 -61 22 -21 c12 -12 1116 -1044 2452 -2294 1337
-1251 2494 -2334 2571 -2407 l142 -133 112 51 c62 27 116 47 120 42 11 -11
103 -214 98 -216 -1 -1 -32 -16 -67 -33 l-64 -30 1474 -1380 c810 -758 1482
-1386 1494 -1395 19 -16 24 -14 100 33 288 181 598 269 940 269 324 0 608 -75
877 -234 436 -257 729 -666 835 -1166 25 -114 27 -146 27 -346 1 -283 -30
-498 -121 -845 -19 -74 -36 -142 -37 -151 0 -8 762 -729 1732 -1637 1520
-1424 1735 -1621 1752 -1612 17 9 24 2 57 -54 33 -56 282 -293 1918 -1824
l1880 -1760 45 42 c100 94 253 202 368 260 31 16 52 32 49 39 -3 7 -1492 2786
-3310 6176 l-3305 6163 -113 2 c-109 1 -117 3 -189 37 -173 83 -270 230 -272
411 -1 60 -5 79 -17 83 -34 14 -2607 918 -2625 923 -19 5 -18 4 2 -26 l22 -30
-124 -86 c-69 -48 -131 -88 -138 -91 -8 -3 -35 29 -70 82 l-57 87 95 63 c56
37 90 65 83 68 -8 3 -1933 679 -4279 1504 -2346 824 -4303 1512 -4350 1529
l-86 30 -21 -62z m8342 -3397 c31 -50 55 -92 53 -94 -13 -11 -270 -165 -276
-165 -13 1 -114 182 -106 190 13 12 258 159 265 160 4 0 32 -41 64 -91z m-566
-330 c28 -51 51 -95 51 -99 0 -8 -263 -160 -276 -160 -10 0 -109 177 -109 193
0 10 252 155 272 156 6 1 34 -40 62 -90z m-571 -320 c30 -56 50 -105 45 -109
-4 -4 -69 -40 -144 -79 l-136 -71 -55 105 c-38 71 -52 108 -44 113 30 20 262
141 271 141 6 0 34 -45 63 -100z m-580 -305 c29 -59 52 -108 50 -109 -2 -2
-67 -35 -145 -74 l-142 -70 -56 106 c-31 58 -54 107 -53 109 9 9 274 144 283
144 6 0 34 -48 63 -106z m-588 -290 c28 -58 50 -108 50 -110 0 -5 -81 -46
-198 -100 l-92 -43 -56 110 -55 110 143 69 c79 38 147 69 151 69 4 1 30 -47
57 -105z m10211 -8026 c23 -38 40 -70 38 -72 -13 -11 -270 -166 -277 -166 -8
0 -102 153 -102 167 0 4 62 45 138 89 156 93 135 94 203 -18z m-581 -325 c29
-49 47 -90 42 -95 -13 -13 -263 -158 -272 -158 -8 0 -96 145 -102 168 -2 10
252 170 274 172 4 0 30 -39 58 -87z m-580 -326 c25 -45 46 -87 48 -93 3 -11
-255 -164 -276 -164 -9 0 -101 151 -105 173 -2 9 259 164 278 166 6 0 30 -36
55 -82z"/>
<path d="M33730 69542 c-14 -15 -37 -37 -52 -48 l-27 -21 1141 -2809 c627
-1545 1143 -2812 1147 -2816 3 -3 47 4 96 18 50 13 93 24 96 24 5 0 59 -196
59 -213 0 -2 -36 -12 -81 -22 -72 -17 -80 -21 -75 -39 3 -12 787 -1945 1742
-4296 l1737 -4276 116 0 c138 0 196 -18 294 -92 138 -106 200 -271 173 -459
-7 -45 -5 -52 11 -56 96 -28 3214 -789 3233 -790 21 0 62 16 206 79 6 3 27
-31 48 -74 l37 -80 182 -45 c594 -148 7805 -1917 7815 -1917 6 0 14 12 17 28
3 15 24 83 45 152 65 206 165 393 308 572 34 43 62 80 62 82 0 3 -807 760
-1792 1683 -986 922 -1822 1705 -1858 1739 l-65 63 -118 -66 c-65 -36 -122
-62 -126 -57 -5 5 -29 48 -55 96 l-47 86 33 20 c18 10 57 32 85 48 29 16 53
31 52 34 0 3 -769 723 -1707 1601 l-1707 1596 -56 -161 c-217 -627 -495 -1127
-803 -1445 -383 -394 -766 -462 -1148 -204 -209 141 -418 381 -607 698 -327
546 -590 1304 -666 1921 -78 624 107 1163 537 1569 l102 96 -74 68 c-41 38
-716 670 -1500 1403 l-1425 1335 -43 -15 c-25 -8 -47 -11 -51 -6 -5 5 -21 44
-36 86 -15 43 -33 84 -39 91 -24 30 -5176 4847 -5183 4847 -5 -1 -19 -13 -33
-28z m4941 -5000 l38 -113 -22 -8 c-64 -24 -288 -94 -291 -90 -6 7 -76 222
-73 225 9 9 284 103 296 101 9 -1 29 -47 52 -115z m-626 -192 c19 -57 35 -109
35 -115 0 -9 -277 -106 -302 -105 -4 0 -23 51 -43 112 -28 87 -34 114 -23 117
73 26 294 97 296 96 1 -1 18 -49 37 -105z m-645 -127 c5 -21 21 -73 34 -115
14 -43 21 -79 18 -81 -23 -12 -303 -90 -307 -85 -8 8 -69 218 -64 221 4 4 288
94 301 96 4 1 12 -16 18 -36z m-607 -255 c15 -57 27 -108 27 -114 0 -11 -300
-98 -308 -89 -8 7 -62 209 -57 213 3 4 290 89 305 91 3 1 18 -45 33 -101z
m10967 -8234 c28 -53 50 -98 48 -100 -7 -7 -282 -154 -287 -154 -11 0 -105
189 -98 196 9 9 269 152 279 153 3 1 30 -42 58 -95z m-591 -308 c28 -51 51
-97 51 -102 0 -5 -37 -29 -83 -53 -45 -24 -110 -59 -144 -78 l-62 -34 -48 93
c-26 51 -49 98 -51 104 -2 7 248 151 285 163 1 1 24 -41 52 -93z m-584 -318
c26 -48 45 -93 43 -98 -2 -6 -67 -45 -145 -86 l-143 -75 -51 102 c-28 56 -47
105 -42 109 20 20 279 148 284 142 4 -4 28 -46 54 -94z m-595 -298 c27 -55 50
-103 50 -107 0 -10 -287 -160 -293 -153 -3 3 -27 50 -55 105 l-50 100 147 76
c80 42 147 77 148 78 2 0 25 -44 53 -99z m-590 -310 c27 -55 50 -102 50 -105
0 -6 -277 -145 -290 -145 -8 0 -110 189 -110 205 0 7 272 144 287 144 7 1 35
-44 63 -99z m-596 -298 l54 -108 -148 -74 c-82 -41 -152 -72 -154 -69 -3 3
-28 52 -55 110 l-49 104 146 72 c81 40 148 73 149 73 2 0 27 -49 57 -108z
m-596 -295 c36 -75 50 -113 41 -116 -7 -2 -74 -34 -149 -72 l-138 -67 -51 105
c-28 57 -51 109 -51 114 0 7 273 146 290 148 3 0 29 -50 58 -112z"/>
<path d="M33515 69415 c-22 -8 -57 -14 -77 -14 l-38 -1 0 -2979 0 -2979 23 -6
c12 -3 55 -6 95 -6 l73 0 -3 -77 -3 -78 -92 2 -93 2 0 -1543 0 -1542 71 -12
c227 -39 389 -232 389 -463 0 -71 -26 -173 -59 -225 l-19 -31 2750 -2286 2750
-2287 47 41 c25 23 61 48 79 57 18 9 31 19 30 23 -2 3 -788 1940 -1748 4303
l-1745 4296 -36 -6 -36 -5 -22 88 c-12 48 -24 95 -27 104 -2 9 4 20 14 25 17
8 -79 248 -1055 2649 -590 1452 -1102 2713 -1139 2803 -37 89 -72 162 -78 161
-6 -1 -29 -7 -51 -14z m2014 -5786 c12 -56 20 -103 19 -105 -7 -7 -310 -65
-315 -61 -8 8 -46 187 -41 193 5 4 285 72 304 73 6 1 21 -44 33 -100z m-654
-61 c9 -45 25 -142 25 -158 0 -13 -28 -20 -155 -40 -85 -13 -157 -21 -160 -18
-9 8 -35 171 -29 177 5 5 267 57 301 60 7 1 15 -9 18 -21z m-641 -110 c3 -13
8 -53 11 -89 l6 -66 -68 -6 c-37 -4 -111 -9 -164 -13 l-97 -7 -7 82 c-4 45 -5
84 -3 86 5 5 231 32 280 34 31 1 38 -3 42 -21z"/>
<path d="M43070 61724 c-182 -23 -333 -69 -482 -146 l-100 -51 54 -52 c29 -29
456 -430 948 -890 l894 -836 25 48 c68 135 118 319 130 484 30 412 -114 790
-410 1073 -186 179 -398 291 -654 347 -88 19 -328 33 -405 23z"/>
<path d="M42325 61401 c-226 -194 -381 -464 -442 -768 -24 -122 -24 -376 1
-493 56 -269 167 -485 345 -673 185 -194 404 -320 675 -388 118 -30 387 -38
522 -15 116 20 274 71 371 120 185 93 382 260 492 416 l53 75 -60 55 c-32 30
-463 433 -956 895 -494 462 -903 841 -909 843 -7 1 -48 -29 -92 -67z"/>
<path d="M33685 59359 c-77 -59 -179 -99 -252 -99 l-33 0 0 -4330 c0 -4323 0
-4330 20 -4330 17 0 20 -7 20 -42 0 -24 3 -53 6 -64 4 -17 0 -23 -20 -28 l-26
-6 0 -398 0 -398 71 -12 c192 -33 350 -188 382 -376 l11 -66 1178 0 1177 0 6
38 c29 170 114 290 257 362 112 55 242 64 359 22 l56 -19 541 963 c298 529
542 965 542 967 0 3 -70 -17 -155 -43 -85 -26 -157 -45 -159 -41 -9 17 -59
192 -55 195 7 6 310 98 313 94 2 -1 16 -46 32 -98 30 -94 30 -95 46 -70 31 48
1448 2573 1446 2575 -2 1 -28 18 -58 37 -153 96 -241 289 -211 461 6 35 21 88
33 116 18 45 19 54 7 65 -48 45 -5481 4556 -5487 4556 -4 0 -25 -14 -47 -31z
m3635 -7907 c20 -66 25 -94 17 -97 -103 -35 -301 -85 -307 -79 -8 9 -61 176
-57 180 8 7 295 92 306 91 8 -1 25 -39 41 -95z m-642 -171 c12 -43 22 -85 22
-93 0 -11 -44 -27 -156 -57 -86 -24 -157 -41 -158 -39 -9 11 -48 169 -43 174
6 6 283 91 303 93 6 0 21 -34 32 -78z m-648 -153 c6 -24 16 -60 22 -81 6 -20
9 -40 5 -43 -7 -7 -310 -84 -315 -80 -7 8 -44 157 -39 162 8 8 269 82 294 83
18 1 24 -7 33 -41z m-632 -208 c18 -72 18 -80 3 -84 -43 -13 -280 -66 -294
-66 -17 0 -18 4 -37 88 -7 30 -9 57 -4 62 9 8 267 78 295 79 12 1 22 -19 37
-79z m-647 -155 c8 -41 13 -75 11 -75 -2 0 -69 -13 -149 -30 -79 -16 -150 -30
-158 -30 -15 0 -32 51 -37 110 l-3 34 140 32 c77 18 149 33 160 33 18 1 23
-10 36 -74z m-652 -133 c7 -35 11 -65 9 -66 -2 -2 -66 -13 -143 -25 -77 -13
-150 -25 -161 -28 -20 -4 -23 2 -33 62 -7 37 -11 69 -9 71 8 7 314 60 319 55
4 -3 12 -35 18 -69z"/>
<path d="M40017 54312 c-92 -129 -240 -198 -407 -191 l-80 4 -635 -1129 c-349
-621 -634 -1130 -633 -1132 2 -1 64 18 138 42 74 24 140 44 147 44 14 0 76
-191 65 -201 -8 -8 -304 -101 -307 -97 -1 2 -16 43 -32 93 l-29 89 -41 -69
c-22 -39 -309 -548 -637 -1132 l-598 -1062 51 -51 c30 -29 65 -81 88 -126 34
-70 38 -86 41 -174 6 -144 -28 -245 -115 -341 -25 -27 -33 -43 -26 -52 5 -6
622 -832 1371 -1833 l1362 -1821 52 -15 c56 -16 63 -29 45 -85 -6 -17 43 -88
278 -402 l285 -381 52 29 c175 99 394 74 540 -62 24 -23 51 -52 60 -65 l15
-22 183 102 184 102 -32 13 c-18 7 -32 16 -32 21 0 26 74 222 84 222 6 0 72
-20 145 -45 l134 -45 5026 2797 c2764 1538 5030 2800 5036 2805 6 5 5 24 -3
51 -42 148 -105 401 -126 513 -52 269 -65 456 -53 774 l2 44 -3999 983 -3999
982 -40 -21 c-33 -16 -220 -88 -231 -88 -2 0 -20 44 -40 98 l-37 97 -1602 393
c-881 216 -1605 392 -1609 392 -3 0 -22 -22 -41 -48z m2968 -924 c21 -57 40
-108 42 -114 3 -9 -236 -102 -296 -116 -10 -2 -26 29 -53 101 -21 57 -37 109
-35 114 3 10 268 115 293 116 7 1 29 -45 49 -101z m-621 -238 c21 -61 37 -112
35 -114 -19 -14 -303 -106 -309 -99 -4 4 -24 54 -44 111 -33 94 -34 103 -18
109 124 49 270 101 282 102 10 1 27 -33 54 -109z m-630 -215 c20 -55 36 -105
36 -111 0 -13 -297 -120 -306 -111 -8 8 -74 189 -74 203 0 7 33 24 73 38 39
14 108 39 152 55 44 16 81 28 82 27 1 -1 18 -46 37 -101z m-623 -235 l36 -105
-146 -52 c-80 -29 -151 -52 -157 -52 -11 -1 -91 206 -83 213 12 9 287 104 299
102 10 -1 28 -39 51 -106z m-628 -215 c26 -76 33 -107 24 -110 -156 -56 -301
-105 -303 -103 -5 6 -74 211 -72 213 6 5 294 104 303 104 6 1 27 -46 48 -104z
m-630 -218 l34 -103 -146 -49 c-80 -26 -151 -50 -157 -52 -7 -3 -26 37 -47
101 l-35 105 41 16 c93 34 243 84 259 84 12 1 25 -25 51 -102z m-632 -207 c18
-54 30 -102 27 -105 -3 -3 -74 -28 -157 -55 l-152 -48 -9 22 c-4 12 -19 59
-33 104 l-25 81 146 50 c81 27 152 50 159 50 6 1 26 -44 44 -99z m1114 -7066
c82 -25 152 -48 154 -50 3 -3 -31 -122 -64 -221 -3 -8 -27 -4 -82 13 -43 13
-115 36 -159 49 l-81 25 35 115 c20 63 38 115 41 115 3 0 73 -21 156 -46z
m629 -199 c77 -25 146 -47 152 -49 8 -3 1 -41 -23 -118 -20 -62 -37 -114 -39
-116 -4 -5 -298 89 -308 98 -8 8 60 230 71 230 3 0 69 -20 147 -45z"/>
<path d="M53175 52589 c-77 -10 -235 -50 -282 -71 l-29 -13 260 -485 c144
-267 266 -494 272 -504 11 -18 14 -18 62 -3 98 32 242 16 344 -40 58 -32 157
-133 187 -190 50 -100 65 -237 36 -348 -44 -166 -195 -306 -365 -337 -52 -10
-154 -4 -230 14 -17 4 -312 -663 -300 -676 6 -6 88 -12 182 -14 149 -3 188 -1
278 18 298 61 532 188 732 399 188 197 310 442 354 710 24 148 15 378 -20 518
-113 449 -432 802 -864 957 -169 60 -442 89 -617 65z"/>
<path d="M52678 52417 c-48 -28 -126 -83 -174 -121 l-86 -69 24 -22 c230 -219
831 -775 837 -775 5 0 18 8 29 18 21 17 19 21 -248 517 -148 275 -275 501
-282 502 -7 2 -52 -21 -100 -50z"/>
<path d="M52345 52147 c-6 -8 -39 -52 -73 -98 -102 -134 -232 -427 -232 -523
0 -20 37 -30 547 -155 509 -125 548 -133 558 -116 5 10 24 39 41 65 l31 47
-424 396 c-233 219 -427 397 -431 397 -4 0 -12 -6 -17 -13z"/>
<path d="M52014 51353 c-9 -86 1 -251 22 -350 38 -184 100 -335 199 -484 l65
-97 410 228 c226 125 414 230 417 233 3 3 -1 30 -8 59 -7 29 -12 90 -11 136 0
45 -1 82 -4 82 -2 0 -243 59 -535 130 -291 72 -534 130 -539 130 -5 0 -12 -30
-16 -67z"/>
<path d="M52835 50624 c-181 -101 -363 -203 -404 -225 l-73 -41 53 -55 c59
-60 207 -176 219 -171 10 4 580 617 580 623 0 10 -32 55 -39 54 -3 0 -154 -83
-336 -185z"/>
<path d="M52989 50391 l-286 -306 61 -31 c68 -35 228 -94 255 -94 14 0 53 81
170 346 84 190 151 347 149 348 -2 1 -16 12 -33 23 l-30 21 -286 -307z"/>
<path d="M46784 47257 c-2766 -1541 -5035 -2806 -5042 -2810 -6 -4 -21 -39
-33 -77 -13 -39 -28 -70 -34 -70 -7 0 -38 9 -70 20 l-59 20 -218 -121 c-120
-66 -218 -121 -218 -122 0 -1 7 -24 15 -51 22 -71 19 -200 -5 -279 -23 -74
-87 -167 -147 -215 -23 -18 -71 -46 -108 -64 -87 -40 -218 -50 -309 -24 -32
10 -62 14 -66 9 -10 -10 -6840 -13658 -6840 -13666 0 -4 9 -11 19 -17 17 -9
240 227 1958 2073 1065 1145 1961 2107 1991 2138 l53 57 -143 57 c-79 31 -147
60 -151 64 -10 10 73 221 87 221 19 0 296 -113 296 -121 0 -4 -16 -49 -35
-100 -20 -50 -34 -93 -33 -94 2 -1 633 675 1403 1502 770 828 1527 1641 1682
1808 l282 303 -69 183 c-193 515 -310 1051 -310 1425 0 663 374 1267 965 1559
168 83 287 125 449 158 149 30 510 32 648 4 341 -69 631 -215 875 -441 l70
-65 984 1057 c541 581 984 1064 985 1072 1 18 92 188 105 195 4 3 22 -1 38 -9
l29 -15 3073 3301 c1691 1816 3091 3320 3111 3343 l37 42 -53 124 c-54 127
-156 400 -156 419 0 5 -6 10 -12 9 -7 0 -2277 -1262 -5044 -2802z m-4557
-2888 c81 -29 151 -55 155 -58 7 -6 -61 -213 -74 -227 -10 -10 -308 96 -308
110 0 10 73 226 77 226 1 0 68 -23 150 -51z m639 -231 c102 -37 144 -57 143
-68 0 -8 -17 -60 -38 -115 -26 -69 -42 -99 -52 -97 -60 14 -299 107 -296 116
2 6 21 57 42 114 20 56 42 102 47 102 6 0 75 -23 154 -52z m625 -232 c79 -30
144 -58 144 -63 0 -19 -78 -224 -85 -221 -4 2 -73 28 -154 58 -80 30 -146 59
-146 65 0 10 67 193 76 207 8 12 13 11 165 -46z m629 -238 c74 -29 137 -53
139 -55 5 -3 -69 -205 -80 -217 -7 -8 -309 101 -309 113 0 3 19 55 42 114 32
85 44 107 57 102 9 -3 77 -29 151 -57z m603 -269 c78 -39 144 -73 147 -76 2
-2 -19 -51 -48 -108 l-51 -104 -93 43 c-90 42 -200 96 -206 101 -3 3 101 215
105 215 2 0 67 -32 146 -71z m725 -424 c-11 -22 -36 -68 -55 -102 l-34 -62
-142 70 c-78 39 -144 73 -147 76 -2 2 19 51 48 109 l52 105 149 -78 149 -77
-20 -41z m-9078 -8166 l149 -51 -40 -111 c-22 -61 -41 -112 -42 -113 -2 -2
-300 107 -306 112 -1 1 5 27 14 56 36 108 57 158 67 158 5 0 77 -23 158 -51z
m619 -223 c78 -30 145 -57 148 -60 5 -5 -61 -190 -76 -215 -6 -9 -285 89 -304
108 -8 8 70 221 82 221 3 0 71 -25 150 -54z"/>
<path d="M49000 46106 c-1696 -1822 -3085 -3317 -3087 -3322 -2 -5 29 -26 67
-47 39 -21 70 -40 70 -43 0 -8 -101 -194 -106 -194 -2 0 -46 23 -99 51 -52 28
-99 49 -104 47 -5 -1 -457 -484 -1005 -1072 l-995 -1069 44 -51 c214 -252 357
-616 385 -980 48 -636 -311 -1793 -770 -2476 -206 -306 -426 -520 -644 -625
-130 -63 -199 -79 -336 -79 -103 0 -125 4 -210 33 -175 59 -311 152 -480 328
-209 215 -411 526 -575 881 -29 62 -55 115 -58 118 -3 3 -5325 -5706 -7305
-7838 l-43 -46 37 -56 c20 -31 38 -56 40 -56 5 0 6919 2483 6923 2486 2 2 -2
10 -9 19 -10 12 -2 26 49 83 92 105 82 102 152 41 55 -47 64 -52 87 -43 15 5
1035 372 2268 814 l2241 805 11 72 c22 136 92 248 202 321 87 59 145 75 269
76 l103 1 3187 7225 3188 7225 -54 75 c-87 123 -209 326 -284 473 -38 75 -71
137 -72 137 -1 0 -1390 -1491 -3087 -3314z m-2510 -3657 c77 -45 140 -83 140
-86 0 -10 -101 -183 -107 -183 -11 0 -283 155 -283 161 0 8 103 189 107 189 2
0 66 -36 143 -81z m576 -340 c74 -44 134 -85 134 -91 0 -5 -23 -48 -50 -94
l-51 -83 -77 45 c-42 25 -107 64 -144 85 l-67 40 40 67 c61 100 69 112 75 112
3 0 66 -36 140 -81z m562 -350 c70 -45 131 -85 135 -89 7 -6 -88 -170 -99
-170 -2 0 -66 39 -143 86 l-140 85 36 57 c49 78 73 112 79 112 3 0 63 -37 132
-81z m669 -448 c12 -9 23 -20 23 -25 0 -6 -69 -110 -97 -145 -4 -6 -273 173
-273 182 0 4 23 41 50 83 l51 74 112 -77 c62 -42 122 -84 134 -92z m439 -317
c68 -49 123 -93 123 -97 1 -13 -90 -138 -98 -135 -20 8 -261 184 -261 190 0
16 94 138 104 135 5 -2 65 -44 132 -93z m-10512 -6940 c78 -42 142 -77 143
-78 5 -4 -112 -216 -118 -216 -5 0 -279 148 -286 154 -4 3 111 216 116 216 2
0 67 -34 145 -76z m586 -329 c74 -43 136 -79 138 -81 6 -4 -120 -215 -127
-212 -20 9 -281 161 -281 163 0 11 124 214 129 211 3 -2 67 -38 141 -81z m574
-347 c72 -45 132 -83 134 -84 5 -3 -122 -204 -130 -204 -9 0 -249 149 -265
164 -9 8 3 34 49 109 33 53 65 97 70 97 6 0 70 -37 142 -82z m603 -397 l91
-62 -66 -97 c-36 -53 -66 -98 -67 -100 -2 -2 -252 164 -268 178 -5 4 22 53 59
109 l67 101 46 -34 c25 -18 87 -61 138 -95z m517 -376 c58 -44 105 -84 106
-88 0 -18 -136 -185 -145 -178 -5 5 -65 49 -133 100 -85 64 -120 96 -114 104
138 183 133 178 158 159 12 -9 70 -53 128 -97z"/>
<path d="M33841 49061 c-47 -156 -171 -276 -326 -317 -27 -8 -65 -14 -82 -14
l-33 0 0 -5889 0 -5888 55 -7 c69 -8 140 -34 197 -73 l44 -30 3311 3384 3311
3384 -34 57 c-49 80 -69 153 -68 247 0 102 23 177 77 257 l42 64 -266 358
c-219 293 -268 354 -274 337 -3 -12 -9 -21 -13 -21 -12 0 -303 88 -308 93 -3
2 10 54 28 116 l32 111 35 -6 34 -7 -60 79 c-33 43 -628 840 -1323 1769 -694
930 -1270 1698 -1279 1708 -16 17 -20 16 -77 -10 -123 -56 -303 -41 -422 37
-105 68 -192 190 -208 293 l-7 37 -1182 0 -1183 0 -21 -69z m1398 -3027 l31
-6 0 -90 0 -89 -167 7 c-93 3 -170 8 -171 10 -2 1 -1 41 3 88 l7 86 133 0 c73
0 147 -3 164 -6z m-636 -86 c4 -45 5 -83 4 -85 -7 -7 -319 -24 -325 -18 -7 7
-17 154 -11 156 11 2 269 27 295 28 l31 1 6 -82z m1332 -22 c-3 -34 -8 -78
-11 -100 l-6 -38 -42 5 c-22 3 -96 11 -164 18 l-124 13 7 60 c3 34 8 77 11 96
l5 35 165 -14 166 -14 -7 -61z m-1991 -60 c9 -38 16 -70 14 -71 -10 -9 -314
-73 -319 -67 -6 7 -40 135 -36 138 17 9 314 79 318 75 3 -3 14 -37 23 -75z
m2577 48 c86 -10 84 -7 69 -116 -7 -51 -15 -96 -19 -99 -6 -6 -311 39 -320 47
-4 4 19 185 25 195 2 3 45 0 96 -7 51 -7 118 -16 149 -20z m592 -101 c115 -21
147 -30 147 -42 -1 -9 -9 -56 -18 -106 -15 -78 -20 -90 -37 -88 -26 2 -299 55
-303 59 -2 1 4 48 14 103 13 78 21 101 33 101 9 0 82 -12 164 -27z m657 -133
c79 -17 145 -32 146 -33 3 -3 -44 -208 -49 -213 -5 -6 -306 61 -314 70 -3 3 4
53 17 111 19 85 26 104 39 101 9 -3 81 -19 161 -36z m627 -145 c81 -19 153
-37 160 -39 13 -5 -37 -218 -52 -223 -10 -3 -302 71 -310 78 -4 4 47 219 52
219 1 0 69 -16 150 -35z m663 -170 c80 -21 147 -40 149 -41 5 -4 -48 -203 -58
-220 -4 -7 -55 3 -160 32 -84 24 -155 45 -157 46 -8 9 60 229 70 225 6 -2 76
-21 156 -42z"/>
<path d="M37125 40230 c-1788 -1827 -3276 -3349 -3308 -3384 l-58 -64 31 -48
c100 -158 91 -377 -21 -526 -75 -101 -198 -173 -316 -185 l-53 -6 0 -3066 0
-3067 63 -12 c34 -6 73 -14 87 -17 24 -6 111 166 3448 6834 3204 6402 3422
6840 3403 6850 -11 6 -21 11 -23 11 -2 0 -1466 -1494 -3253 -3320z m-3331
-4755 c71 -8 131 -16 133 -19 4 -4 -15 -178 -20 -182 -4 -3 -319 44 -323 48
-2 3 1 44 7 91 l12 87 31 -5 c17 -3 89 -12 160 -20z m643 -107 c120 -25 153
-35 153 -47 -1 -23 -37 -171 -43 -178 -6 -6 -290 57 -309 68 -9 6 8 118 27
177 6 16 -3 17 172 -20z m652 -158 c79 -22 146 -42 149 -44 4 -5 -45 -196 -53
-204 -4 -5 -298 80 -308 88 -14 12 39 200 56 200 7 0 77 -18 156 -40z m630
-186 c80 -25 150 -49 154 -54 11 -10 -54 -210 -68 -210 -24 0 -300 97 -300
106 0 15 59 204 64 204 2 0 70 -21 150 -46z"/>
<path d="M42272 40640 c-591 -75 -1066 -524 -1167 -1104 -20 -116 -20 -344 1
-461 47 -276 198 -555 400 -744 74 -69 78 -71 94 -54 76 81 1777 1913 1792
1929 l19 22 -83 72 c-194 170 -396 271 -639 320 -115 24 -312 33 -417 20z"/>
<path d="M42558 39186 l-906 -971 26 -22 c41 -34 209 -118 305 -152 276 -97
591 -100 862 -10 199 66 355 161 510 310 206 199 336 437 392 717 24 120 24
375 0 495 -42 212 -143 434 -262 578 l-22 27 -905 -972z"/>
<path d="M53316 45413 c-3 -15 -65 -466 -137 -1002 -96 -720 -127 -976 -119
-981 12 -7 112 -22 116 -17 2 1 62 439 133 972 72 534 133 984 136 1002 5 31
4 32 -32 38 -21 4 -50 9 -65 11 -22 4 -27 1 -32 -23z"/>
<path d="M53546 45363 c-197 -1451 -263 -1959 -258 -1964 4 -4 33 -9 64 -13
54 -6 58 -5 62 16 6 26 266 1961 266 1977 0 5 -21 13 -47 16 -27 4 -55 9 -65
11 -13 4 -17 -5 -22 -43z"/>
<path d="M53652 44386 c-73 -545 -133 -998 -132 -1007 0 -13 15 -18 61 -23 34
-4 62 -6 64 -4 6 8 270 2003 265 2005 -3 2 -32 6 -65 11 l-60 8 -133 -990z"/>
<path d="M54016 45319 c-6 -26 -266 -1961 -266 -1977 0 -10 117 -28 126 -20 4
5 274 2001 271 2004 -1 2 -30 6 -64 9 -60 7 -62 7 -67 -16z"/>
<path d="M54250 45303 c0 -4 -61 -456 -134 -1003 -74 -547 -133 -996 -132
-997 1 -2 30 -6 64 -9 58 -6 61 -6 66 17 10 44 268 1980 265 1983 -9 9 -129
17 -129 9z"/>
<path d="M54350 44281 c-74 -550 -132 -1002 -129 -1005 4 -5 123 -26 125 -22
5 9 268 2008 264 2010 -3 2 -32 6 -65 10 l-60 6 -135 -999z"/>
<path d="M54716 45223 c-12 -62 -267 -1976 -263 -1979 5 -6 120 -25 124 -21 1
2 61 439 133 973 71 533 132 983 135 1001 6 35 3 37 -77 48 -45 6 -46 5 -52
-22z"/>
<path d="M54950 45208 c0 -7 -61 -458 -134 -1003 -74 -544 -132 -992 -130
-994 6 -7 118 -20 123 -15 5 4 270 1951 271 1986 0 12 -11 19 -37 23 -21 4
-50 9 -65 11 -19 4 -28 1 -28 -8z"/>
<path d="M55185 45176 c-6 -18 -265 -1959 -265 -1982 0 -19 8 -22 62 -28 34
-3 62 -5 63 -4 3 4 272 2003 270 2005 -1 2 -30 7 -64 11 -44 6 -64 6 -66 -2z"/>
<path d="M55416 45124 c-6 -28 -266 -1959 -266 -1974 0 -8 119 -24 126 -17 6
6 275 2000 271 2004 -2 2 -31 6 -64 9 l-61 7 -6 -29z"/>
<path d="M55650 45114 c0 -5 -60 -457 -134 -1004 -74 -547 -133 -996 -132
-997 2 -2 31 -4 66 -5 l64 -3 134 998 c74 549 133 999 131 1002 -9 8 -129 17
-129 9z"/>
<path d="M55751 44091 c-74 -551 -133 -1003 -130 -1005 2 -2 31 -8 65 -13 l60
-9 136 1005 c74 553 135 1007 134 1007 0 1 -30 5 -66 8 l-65 7 -134 -1000z"/>
<path d="M56115 45028 c-13 -80 -265 -1971 -262 -1974 4 -4 121 -23 124 -20 8
7 271 2002 265 2007 -4 4 -33 10 -64 14 l-57 6 -6 -33z"/>
<path d="M56350 45013 c-1 -10 -61 -461 -134 -1003 -74 -542 -132 -986 -131
-988 5 -6 120 -20 125 -15 4 4 269 1951 270 1985 0 18 -12 23 -82 33 -42 5
-48 4 -48 -12z"/>
<path d="M56586 44988 c-2 -7 -64 -458 -137 -1001 -103 -775 -129 -991 -120
-997 12 -7 113 -22 117 -17 1 1 61 445 133 987 73 542 134 993 137 1002 4 13
-4 18 -43 23 -26 4 -56 9 -66 12 -9 2 -19 -2 -21 -9z"/>
<path d="M56815 44931 c-33 -205 -263 -1967 -257 -1972 4 -4 32 -10 63 -13
l57 -7 6 33 c13 73 266 1972 263 1975 -2 1 -31 7 -65 11 l-61 9 -6 -36z"/>
<path d="M57050 44921 c0 -9 -60 -461 -134 -1006 -74 -544 -133 -991 -132
-992 1 -1 30 -3 66 -5 l64 -3 135 998 c74 548 132 999 130 1001 -2 2 -32 8
-66 13 -55 9 -63 8 -63 -6z"/>
<path d="M57286 44888 c-8 -24 -269 -1988 -265 -1992 2 -3 32 -8 67 -12 49 -5
62 -4 62 7 0 8 60 460 134 1004 74 545 133 991 132 991 0 1 -29 5 -63 9 -49 5
-64 4 -67 -7z"/>
<path d="M57517 44838 c-12 -64 -267 -1971 -265 -1973 2 -2 31 -7 65 -12 l62
-10 6 36 c16 102 265 1974 263 1976 -2 2 -31 6 -64 10 l-61 7 -6 -34z"/>
<path d="M57750 44823 c0 -10 -61 -461 -134 -1003 -73 -542 -132 -986 -131
-987 1 -2 30 -7 64 -11 44 -6 64 -6 66 2 14 48 266 1989 259 1995 -5 5 -35 12
-66 16 -52 6 -58 5 -58 -12z"/>
<path d="M57987 44793 c-12 -41 -269 -1984 -263 -1990 6 -6 118 -24 122 -20 1
1 61 443 133 982 72 539 134 990 136 1002 4 19 0 23 -32 28 -21 4 -50 9 -65
11 -19 4 -28 1 -31 -13z"/>
<path d="M58220 44777 c0 -2 -61 -453 -135 -1002 -92 -685 -131 -1001 -124
-1006 13 -8 111 -20 117 -15 3 4 271 1974 272 1998 0 4 -17 10 -37 13 -21 3
-50 8 -65 10 -16 3 -28 3 -28 2z"/>
<path d="M58319 43748 c-75 -552 -133 -1006 -130 -1010 3 -4 33 -8 66 -10 l60
-3 132 975 c72 536 132 987 132 1002 1 25 -3 27 -46 33 -27 4 -55 9 -63 11
-14 3 -36 -142 -151 -998z"/>
<path d="M58686 44699 c-8 -25 -269 -1989 -265 -1993 2 -2 32 -7 67 -11 49 -5
62 -4 62 7 0 7 61 459 134 1003 74 545 133 991 133 992 -1 1 -30 5 -64 8 -49
6 -64 5 -67 -6z"/>
<path d="M58916 44644 c-14 -87 -265 -1968 -263 -1970 1 -1 30 -6 64 -9 l61
-7 6 28 c10 52 267 1976 264 1979 -2 2 -31 7 -64 10 l-62 7 -6 -38z"/>
<path d="M59149 44629 c0 -13 -60 -465 -133 -1004 l-132 -980 25 -6 c14 -4 44
-7 66 -8 l40 -1 133 988 c73 543 132 995 132 1005 0 10 -8 17 -19 17 -10 0
-39 3 -65 6 -44 6 -46 5 -47 -17z"/>
<path d="M59386 44598 c-13 -57 -268 -1980 -263 -1984 5 -5 120 -24 124 -20 0
0 60 440 132 976 72 536 133 987 136 1002 5 30 1 32 -77 43 -44 6 -48 4 -52
-17z"/>
<path d="M59620 44583 c0 -5 -61 -456 -135 -1003 -73 -547 -132 -996 -131
-998 6 -5 120 -22 124 -17 3 3 272 1974 272 1997 0 8 -21 13 -87 22 -24 4 -43
3 -43 -1z"/>
<path d="M59719 43558 c-90 -668 -131 -1005 -124 -1009 5 -4 35 -10 65 -13
l55 -7 133 993 c73 546 133 998 133 1005 -1 7 -18 15 -38 18 -21 4 -49 8 -63
11 l-25 5 -136 -1003z"/>
<path d="M60085 44506 c-10 -47 -267 -1987 -264 -1990 9 -8 129 -16 129 -9 0
4 61 456 134 1003 74 547 134 996 133 996 -1 1 -30 6 -65 11 -59 9 -63 9 -67
-11z"/>
<path d="M60320 44488 c0 -3 -61 -454 -135 -1003 -74 -550 -133 -1000 -132
-1001 1 -1 30 -5 64 -9 60 -7 62 -6 67 17 10 44 268 1980 264 1983 -5 6 -128
18 -128 13z"/>
<path d="M60419 43458 l-135 -1003 36 -7 c19 -4 49 -7 65 -7 l31 -1 135 1003
135 1002 -41 7 c-22 3 -51 7 -65 7 l-26 1 -135 -1002z"/>
<path d="M60786 44408 c-11 -50 -267 -1980 -264 -1984 3 -2 32 -8 66 -12 43
-6 62 -5 62 2 0 6 61 457 135 1001 73 545 130 993 127 996 -4 4 -33 10 -64 14
-54 6 -58 5 -62 -17z"/>
<path d="M61020 44393 c0 -5 -61 -456 -134 -1003 -74 -547 -133 -996 -132
-997 4 -5 121 -21 125 -17 10 9 272 1997 264 2004 -11 10 -123 22 -123 13z"/>
<path d="M61120 43369 c-107 -802 -132 -1002 -121 -1008 12 -8 113 -23 116
-18 1 1 62 452 136 1002 117 869 133 1001 119 1006 -8 3 -37 9 -65 13 l-50 6
-135 -1001z"/>
<path d="M61485 44308 c-26 -152 -264 -1973 -258 -1978 10 -9 123 -22 123 -14
0 9 259 1935 265 1971 6 31 5 32 -42 38 -26 4 -56 9 -65 11 -13 4 -18 -3 -23
-28z"/>
<path d="M61720 44300 c0 -4 -60 -456 -134 -1006 -74 -549 -134 -999 -133
-1000 1 -1 30 -4 64 -8 59 -7 63 -6 68 16 9 44 267 1979 264 1983 -8 7 -129
21 -129 15z"/>
<path d="M61820 43266 l-135 -1004 63 -7 c35 -4 65 -5 66 -3 2 1 64 453 138
1003 l134 1000 -35 7 c-20 4 -50 7 -66 7 l-30 1 -135 -1004z"/>
<path d="M62186 44213 c-12 -58 -267 -1975 -263 -1979 2 -2 31 -7 64 -10 l61
-7 6 39 c14 84 265 1968 263 1970 -1 1 -30 5 -64 9 l-61 7 -6 -29z"/>
<path d="M62420 44202 c0 -12 -258 -1930 -265 -1969 l-6 -31 63 -9 c53 -7 64
-6 70 7 8 19 272 1989 267 1994 -10 8 -129 16 -129 8z"/>
<path d="M62655 44168 c-9 -28 -268 -1988 -263 -1993 5 -6 120 -26 123 -22 1
1 63 452 137 1002 91 680 131 1002 124 1006 -6 4 -35 9 -64 13 -39 5 -53 3
-57 -6z"/>
<path d="M56082 35482 c-51 -60 -60 -78 -50 -87 93 -86 612 -505 618 -498 44
51 110 136 110 143 0 6 -455 390 -595 502 -20 16 -23 14 -83 -60z"/>
<path d="M55851 35204 l-62 -75 23 -18 c13 -11 151 -125 307 -255 157 -130
288 -236 292 -236 9 0 122 135 121 145 -1 6 -610 515 -617 515 -1 0 -30 -34
-64 -76z"/>
<path d="M55635 34943 c-27 -32 -55 -65 -62 -74 -11 -14 25 -48 296 -272 171
-141 312 -257 314 -257 2 0 32 33 66 74 l61 74 -305 254 c-168 139 -309 254
-314 256 -4 1 -30 -23 -56 -55z"/>
<path d="M56862 34844 c-29 -36 -55 -70 -57 -77 -4 -11 581 -503 608 -512 12
-4 113 111 121 137 4 11 -583 506 -610 515 -5 1 -33 -27 -62 -63z"/>
<path d="M56631 34565 c-34 -40 -61 -75 -61 -78 0 -2 116 -101 258 -218 141
-117 280 -233 309 -257 l51 -43 61 73 c34 39 60 76 59 80 -2 4 -141 122 -310
262 l-307 255 -60 -74z"/>
<path d="M56403 34290 c-32 -39 -58 -75 -58 -79 0 -13 605 -513 616 -509 6 2
36 35 68 73 l58 69 -266 221 c-146 121 -287 237 -313 258 l-46 38 -59 -71z"/>
<path d="M57670 34164 c-34 -41 -59 -79 -54 -83 64 -58 606 -501 613 -501 8 0
133 143 128 146 -2 1 -586 482 -608 501 -14 12 -24 4 -79 -63z"/>
<path d="M57442 33888 l-61 -73 22 -22 c36 -35 591 -493 598 -493 4 0 34 33
67 73 l61 74 -307 254 c-168 140 -309 255 -313 257 -4 2 -34 -30 -67 -70z"/>
<path d="M57213 33612 c-48 -59 -60 -79 -50 -88 88 -82 611 -504 616 -497 4 4
31 36 59 69 29 34 52 66 52 72 0 5 -116 106 -257 223 -142 117 -281 232 -308
255 l-50 43 -62 -77z"/>
<path d="M18260 30317 l0 -56 511 -468 511 -467 -58 -56 c-33 -30 -263 -252
-511 -494 l-453 -439 0 -55 c0 -52 1 -54 18 -40 40 34 829 722 969 845 l151
132 167 -152 c92 -84 173 -152 180 -152 8 0 89 69 180 153 l167 152 72 -63
c39 -35 285 -249 546 -477 261 -227 485 -422 498 -433 l22 -20 0 55 0 56 -472
457 c-260 252 -490 475 -511 495 l-38 36 506 463 c279 255 509 469 511 476 3
7 4 33 2 58 l-3 46 -740 -564 c-426 -324 -744 -560 -750 -555 -12 9 -1396
1063 -1442 1098 l-33 24 0 -55z"/>
</g>
</svg>
